HIERARCHY
ROOT Hips
{
 OFFSET 0.000000 0.000000 0.000000
 CHANNELS 6 Xposition Yposition Zposition Yrotation Xrotation Zrotation
 JOINT Chest
 {
  OFFSET 0.000000 9.585900 0.002600
  CHANNELS 3 Yrotation Xrotation Zrotation
  JOINT Chest2
  {
   OFFSET 0.000000 9.601200 -0.005300
   CHANNELS 3 Yrotation Xrotation Zrotation
   JOINT Chest3
   {
    OFFSET 0.000000 9.561800 0.000000
    CHANNELS 3 Yrotation Xrotation Zrotation
    JOINT Chest4
    {
     OFFSET 0.000000 9.552100 0.000000
     CHANNELS 3 Yrotation Xrotation Zrotation
     JOINT Neck
     {
      OFFSET 0.000000 14.453000 0.000000
      CHANNELS 3 Yrotation Xrotation Zrotation
      JOINT Head
      {
       OFFSET 0.000000 8.936500 -0.011300
       CHANNELS 3 Yrotation Xrotation Zrotation
       End Site
       {
        OFFSET 0.000000 17.073600 -0.006000
       }
      }
     }
     JOINT RightCollar
     {
      OFFSET -2.921100 9.558500 0.000000
      CHANNELS 3 Yrotation Xrotation Zrotation
      JOINT RightShoulder
      {
       OFFSET -13.519700 0.000000 0.000000
       CHANNELS 3 Yrotation Xrotation Zrotation
       JOINT RightElbow
       {
        OFFSET 0.000000 -29.696600 0.000000
        CHANNELS 3 Yrotation Xrotation Zrotation
        JOINT RightWrist
        {
         OFFSET 0.000000 -24.004700 0.000000
         CHANNELS 3 Yrotation Xrotation Zrotation
         End Site
         {
          OFFSET 0.000000 -17.728500 0.000000
         }
        }
       }
      }
     }
     JOINT LeftCollar
     {
      OFFSET 2.921100 9.558500 0.000000
      CHANNELS 3 Yrotation Xrotation Zrotation
      JOINT LeftShoulder
      {
       OFFSET 13.519700 0.000000 0.000000
       CHANNELS 3 Yrotation Xrotation Zrotation
       JOINT LeftElbow
       {
        OFFSET 0.000000 -29.696600 0.000000
        CHANNELS 3 Yrotation Xrotation Zrotation
        JOINT LeftWrist
        {
         OFFSET 0.000000 -24.004700 0.000000
         CHANNELS 3 Yrotation Xrotation Zrotation
         End Site
         {
          OFFSET 0.000000 -17.728500 0.000000
         }
        }
       }
      }
     }
    }
   }
  }
 }
 JOINT RightHip
 {
  OFFSET -7.771700 -0.012900 -0.001300
  CHANNELS 3 Yrotation Xrotation Zrotation
  JOINT RightKnee
  {
   OFFSET 0.000000 -40.869800 0.001200
   CHANNELS 3 Yrotation Xrotation Zrotation
   JOINT RightAnkle
   {
    OFFSET 0.000000 -39.717900 0.002100
    CHANNELS 3 Yrotation Xrotation Zrotation
    JOINT RightToe
    {
     OFFSET 0.000000 -4.965400 11.033500
     CHANNELS 3 Yrotation Xrotation Zrotation
     End Site
     {
      OFFSET 0.000000 -1.423100 5.872300
     }
    }
   }
  }
 }
 JOINT LeftHip
 {
  OFFSET 7.771700 -0.012900 -0.001300
  CHANNELS 3 Yrotation Xrotation Zrotation
  JOINT LeftKnee
  {
   OFFSET 0.000000 -40.869800 0.001200
   CHANNELS 3 Yrotation Xrotation Zrotation
   JOINT LeftAnkle
   {
    OFFSET 0.000000 -39.717900 0.002100
    CHANNELS 3 Yrotation Xrotation Zrotation
    JOINT LeftToe
    {
     OFFSET 0.000000 -4.965400 11.033500
     CHANNELS 3 Yrotation Xrotation Zrotation
     End Site
     {
      OFFSET 0.000000 -1.423100 5.872300
     }
    }
   }
  }
 }
}
MOTION
Frames: 11
Frame Time: 0.008333
0.000000 85.388000 0.000000 0.000000 -5.767877 0.000000 0.000000 11.653817 0.000000 0.000000 -5.885947 0.000000 0.000000 -0.000000 0.000000 0.000000 -0.000000 0.000000 0.000000 12.528835 0.000000 0.000000 0.711642 0.000000 0.000000 -0.000000 0.000000 0.000000 0.000000 -90.000000 0.000000 -2.309062 0.000000 0.000000 2.309062 0.000000 0.000000 -0.000000 0.000000 0.000000 -0.000000 90.000000 0.000000 -2.309062 0.000000 0.000000 2.309062 0.000000 0.000000 8.520406 0.000000 0.000000 1.905762 0.000000 -0.000000 -4.658285 0.000000 0.000000 -0.000000 0.000000 0.000000 8.520406 0.000000 0.000000 1.905762 0.000000 -0.000000 -4.658285 0.000000 0.000000 -0.000000 0.000000
-47.908422 50.680093 3.329610 163.020465 -21.832452 -0.138840 2.243536 12.456075 1.708596 0.204694 0.954938 0.085175 0.325921 1.680769 0.130428 2.370468 11.431014 1.119789 -1.259265 21.408606 1.857953 -2.640018 4.041785 3.679460 3.953400 5.244883 0.912941 7.470201 -19.825974 -15.167273 38.863364 -49.841892 -18.714920 6.242301 9.634597 -23.588773 -10.733088 0.492894 -1.231681 -2.159692 -21.797094 8.093243 -42.694388 -43.435472 25.092349 -3.936098 1.448588 24.307385 0.827771 -59.519978 -0.985598 -99.024878 79.645822 -101.350738 -2.140958 -11.993133 3.429282 -0.592034 0.610274 -0.264684 -5.322916 -61.597575 23.452142 90.349721 77.951731 87.972523 -18.164023 -16.708382 -1.506450 0.280644 -1.031960 -0.082847
-47.905814 50.683531 3.333927 163.025889 -21.812143 -0.142245 2.230247 12.462530 1.699467 0.193650 0.981122 0.077025 0.340357 1.641110 0.141981 2.363817 11.443502 1.113983 -1.182643 21.389228 1.864572 -2.498243 3.994001 3.679361 3.945277 5.278079 0.931195 7.423805 -19.825410 -15.147357 38.896230 -49.942612 -18.769933 6.268052 9.631560 -23.574879 -10.734653 0.530084 -1.237685 -2.076600 -21.715388 8.081133 -42.730473 -43.610671 25.220626 -3.957719 1.459363 24.284159 0.803507 -59.540152 -0.972505 -99.013537 79.645698 -101.349186 -2.128037 -11.984996 3.432899 -0.602795 0.600820 -0.270045 -5.273219 -61.627871 23.443407 90.260909 77.893773 87.868626 -18.227172 -16.608512 -1.419982 0.311896 -1.010403 -0.080859
-47.902815 50.686741 3.339433 163.035169 -21.783578 -0.151268 2.212771 12.462681 1.694456 0.193202 0.982139 0.076622 0.342483 1.640546 0.140128 2.370295 11.422844 1.118879 -1.063627 21.401955 1.872411 -2.412477 3.932904 3.701647 3.937726 5.299404 0.939797 7.358967 -19.798065 -15.106083 38.935992 -50.037748 -18.840187 6.338453 9.650839 -23.537835 -10.746360 0.578580 -1.243107 -1.992584 -21.622076 8.050595 -42.803349 -43.782808 25.389152 -4.019206 1.484663 24.229920 0.773559 -59.567830 -0.956154 -99.000810 79.646853 -101.343175 -2.114534 -11.976556 3.436828 -0.612517 0.590682 -0.276535 -5.227330 -61.669986 23.446939 90.173187 77.845491 87.770164 -18.333281 -16.504714 -1.325675 0.337059 -1.017452 -0.090220
-47.901762 50.690288 3.342689 163.047060 -21.762794 -0.148639 2.194085 12.456965 1.681645 0.189171 0.990349 0.074519 0.341478 1.649575 0.137766 2.362488 11.429102 1.113670 -0.989142 21.378429 1.886131 -2.279986 3.882105 3.707959 3.946249 5.292752 0.950985 7.232648 -19.719825 -15.002804 39.125095 -50.146979 -19.031136 6.347295 9.643083 -23.521450 -10.757420 0.665240 -1.259069 -1.903072 -21.588032 8.033870 -42.911044 -43.950608 25.595420 -4.014271 1.506395 24.197239 0.767161 -59.586747 -0.966945 -98.991132 79.644442 -101.343723 -2.103080 -11.971164 3.448706 -0.619033 0.583330 -0.283343 -5.180362 -61.704291 23.434597 90.118911 77.791329 87.697391 -18.455614 -16.392626 -1.225205 0.332032 -1.019373 -0.092889
-47.900057 50.693139 3.346405 163.045037 -21.737504 -0.150167 2.188986 12.446353 1.677897 0.192867 0.983438 0.076136 0.329220 1.674704 0.131597 2.356902 11.437150 1.106528 -0.914772 21.353524 1.902980 -2.156094 3.832975 3.717907 3.941084 5.311319 0.967091 7.174692 -19.695385 -14.934602 39.241634 -50.229101 -19.172248 6.312466 9.629948 -23.535826 -10.751052 0.689714 -1.256913 -1.812879 -21.490862 7.985631 -43.052800 -44.111382 25.833274 -3.995285 1.518329 24.177588 0.761986 -59.609743 -0.961072 -98.954013 79.635080 -101.313768 -2.090112 -11.965564 3.456793 -0.625404 0.579478 -0.286736 -5.144877 -61.743331 23.448821 90.096091 77.739778 87.655777 -18.589448 -16.286816 -1.123301 0.316058 -1.003423 -0.082955
-47.896007 50.696238 3.348080 163.027913 -21.725967 -0.162640 2.194320 12.465847 1.683602 0.192839 0.984799 0.075882 0.329227 1.676972 0.131212 2.355024 11.444728 1.102527 -0.847435 21.327115 1.921237 -2.039708 3.785448 3.729194 3.932150 5.334306 0.985750 7.177135 -19.724175 -14.923244 39.259666 -50.273990 -19.222322 6.298193 9.619957 -23.546794 -10.744347 0.695817 -1.251765 -1.713587 -21.376042 7.923071 -43.222145 -44.264650 26.094097 -4.028030 1.546042 24.112131 0.745231 -59.619907 -0.923427 -98.926120 79.625107 -101.291253 -2.077053 -11.955581 3.465191 -0.634069 0.570655 -0.288896 -5.125624 -61.768177 23.490144 90.089474 77.729240 87.650960 -18.700496 -16.198936 -1.041536 0.319195 -1.006974 -0.079174
-47.893101 50.697482 3.352199 163.012467 -21.693815 -0.181352 2.202309 12.465705 1.695838 0.179774 1.022796 0.067237 0.331274 1.670315 0.132487 2.362241 11.418846 1.103749 -0.785367 21.305352 1.939639 -1.929970 3.740177 3.740047 3.906852 5.403487 1.012446 7.201826 -19.792573 -14.927893 39.318524 -50.300200 -19.287950 6.270465 9.612957 -23.571649 -10.729178 0.674659 -1.241312 -1.609603 -21.229116 7.844209 -43.406921 -44.414928 26.368595 -4.073165 1.577208 24.029137 0.717366 -59.647856 -0.874498 -98.868271 79.622016 -101.237244 -2.075731 -11.953860 3.472261 -0.634235 0.574034 -0.291366 -5.117110 -61.814490 23.538119 90.075040 77.716488 87.642402 -18.806684 -16.125037 -0.960952 0.311977 -1.016477 -0.091066
-47.900238 50.697492 3.354622 163.038388 -21.649552 -0.163535 2.148817 12.495109 1.645002 0.195131 0.977179 0.076980 0.337331 1.653921 0.136287 2.319802 11.488120 1.088938 -0.701928 21.243415 1.958614 -1.827468 3.699630 3.749708 3.947381 5.340077 1.017185 7.090611 -19.688829 -14.797730 39.519614 -50.389739 -19.528642 6.316627 9.625209 -23.546602 -10.692256 0.655354 -1.235623 -1.499699 -21.122404 7.771850 -43.598766 -44.564067 26.650178 -4.112374 1.608424 23.966863 0.741302 -59.688906 -0.934698 -98.858075 79.621719 -101.237111 -2.081290 -11.962462 3.483479 -0.629235 0.582365 -0.289611 -5.043781 -61.878054 23.473982 90.066597 77.627968 87.593762 -18.930153 -16.027957 -0.828025 0.268408 -1.067225 -0.150465
-47.903222 50.697722 3.356586 163.049422 -21.612423 -0.172109 2.126014 12.493369 1.638452 0.205987 0.950326 0.081725 0.326625 1.679077 0.130404 2.322261 11.472521 1.091085 -0.673459 21.233670 1.965376 -1.721034 3.671758 3.757811 3.934595 5.379766 1.026198 7.057289 -19.676855 -14.738196 39.573254 -50.480549 -19.673292 6.396303 9.650967 -23.487444 -10.692489 0.691531 -1.242366 -1.379164 -21.013142 7.687467 -43.787900 -44.711638 26.931176 -4.119550 1.622634 23.926169 0.741335 -59.717802 -0.951623 -98.831772 79.629154 -101.205031 -2.077066 -11.977361 3.489285 -0.632548 0.596344 -0.291876 -5.007183 -61.933149 23.462724 90.049271 77.578689 87.568109 -19.021143 -15.958673 -0.734263 0.290775 -1.053459 -0.148358
-47.905134 50.697422 3.359997 163.047096 -21.564857 -0.193746 2.119856 12.481951 1.650199 0.204247 0.949234 0.081700 0.310102 1.715930 0.123437 2.342831 11.418684 1.096541 -0.626892 21.238179 1.978086 -1.640725 3.631398 3.765360 3.904059 5.465465 1.040214 7.098940 -19.760067 -14.750995 39.559894 -50.529760 -19.725757 6.418838 9.663992 -23.466425 -10.692945 0.728559 -1.252427 -1.254218 -20.906143 7.601475 -43.967532 -44.858253 27.206637 -4.128548 1.633093 23.870663 0.722535 -59.759194 -0.927875 -98.803105 79.634539 -101.169451 -2.082359 -11.987841 3.491368 -0.629771 0.608042 -0.289910 -4.988518 -61.996553 23.484508 90.033236 77.548127 87.556654 -19.082931 -15.918372 -0.679103 0.213633 -1.022544 -0.129778
